<svg width="0" height="0" class="hidden">
  <symbol xmlns="http://www.w3.org/2000/svg" fill="currentColor" viewBox="0 0 16 16" id="align-center">
    <path d="M8 1a.5.5 0 0 1 .5.5V6h-1V1.5A.5.5 0 0 1 8 1m0 14a.5.5 0 0 1-.5-.5V10h1v4.5a.5.5 0 0 1-.5.5M2 7a1 1 0 0 1 1-1h10a1 1 0 0 1 1 1v2a1 1 0 0 1-1 1H3a1 1 0 0 1-1-1z"></path>
  </symbol>
  <symbol xmlns="http://www.w3.org/2000/svg" fill="currentColor" viewBox="0 0 16 16" id="align-end">
    <path fill-rule="evenodd" d="M14.5 1a.5.5 0 0 0-.5.5v13a.5.5 0 0 0 1 0v-13a.5.5 0 0 0-.5-.5"></path>
    <path d="M13 7a1 1 0 0 0-1-1H2a1 1 0 0 0-1 1v2a1 1 0 0 0 1 1h10a1 1 0 0 0 1-1z"></path>
  </symbol>
  <symbol xmlns="http://www.w3.org/2000/svg" fill="currentColor" viewBox="0 0 16 16" id="align-bottom">
    <rect width="4" height="12" x="6" y="1" rx="1"></rect>
    <path d="M1.5 14a.5.5 0 0 0 0 1zm13 1a.5.5 0 0 0 0-1zm-13 0h13v-1h-13z"></path>
  </symbol>
</svg>